<svg width="22" height="26" viewBox="0 0 22 26" fill="none" xmlns="http://www.w3.org/2000/svg">
<path d="M13.6667 21.2333V13C13.6667 12.6222 13.7947 12.3053 14.0507 12.0493C14.3067 11.7933 14.6231 11.6657 15 11.6666C15.3778 11.6666 15.6947 11.7946 15.9507 12.0506C16.2067 12.3066 16.3342 12.6231 16.3333 13V21.2333L18.8333 18.7333C19.0778 18.4889 19.3835 18.3609 19.7507 18.3493C20.1178 18.3377 20.4342 18.4657 20.7 18.7333C20.9667 18.9777 21.1058 19.2835 21.1173 19.6506C21.1289 20.0177 21.0009 20.3342 20.7333 20.6L15.9333 25.4C15.8 25.5333 15.6556 25.628 15.5 25.684C15.3444 25.74 15.1778 25.7675 15 25.7666C14.8222 25.7666 14.6556 25.7386 14.5 25.6826C14.3444 25.6266 14.2 25.5324 14.0667 25.4L9.26666 20.6C9.02222 20.3555 8.89999 20.0497 8.89999 19.6826C8.89999 19.3155 9.03333 18.9991 9.29999 18.7333C9.56666 18.4889 9.87777 18.3609 10.2333 18.3493C10.5889 18.3377 10.9 18.4657 11.1667 18.7333L13.6667 21.2333ZM5.66666 4.76663L3.16666 7.26663C2.87777 7.55552 2.55555 7.68885 2.19999 7.66663C1.84444 7.64441 1.54444 7.51108 1.29999 7.26663C1.03333 6.99996 0.899994 6.68307 0.899994 6.31596C0.899994 5.94885 1.02222 5.64352 1.26666 5.39996L6.06666 0.599964C6.19999 0.466631 6.34444 0.371964 6.49999 0.315964C6.65555 0.259964 6.82222 0.232408 6.99999 0.233297C7.17777 0.233297 7.34444 0.260853 7.49999 0.315964C7.65555 0.371075 7.79999 0.465742 7.93333 0.599964L12.7333 5.39996C12.9778 5.64441 13.1 5.95552 13.1 6.3333C13.1 6.71107 12.9778 7.02219 12.7333 7.26663C12.4667 7.5333 12.1498 7.66663 11.7827 7.66663C11.4155 7.66663 11.0991 7.5333 10.8333 7.26663L8.33333 4.76663V13C8.33333 13.3777 8.20533 13.6946 7.94933 13.9506C7.69333 14.2066 7.37688 14.3342 6.99999 14.3333C6.62222 14.3333 6.30533 14.2053 6.04933 13.9493C5.79333 13.6933 5.66577 13.3769 5.66666 13V4.76663Z" fill="white"/>
</svg>
